<svg width="386" height="105" viewBox="0 0 386 105" fill="none" xmlns="http://www.w3.org/2000/svg">
<rect x="0.5" y="0.5" width="385" height="104" stroke="#1E1E1E"/>
<path d="M106.485 62.552C100.725 62.552 96.6929 57.872 96.6929 52.184C96.6929 46.532 100.833 42.248 106.485 42.248C110.445 42.248 113.181 44.12 114.765 47.18L118.077 46.532C115.989 42.14 111.849 39.296 106.485 39.296C99.2129 39.296 93.3089 44.912 93.3089 52.184C93.3089 59.492 99.1049 65.504 106.485 65.504C111.885 65.504 116.061 62.588 118.149 58.088L114.837 57.44C113.253 60.608 110.481 62.552 106.485 62.552ZM139.776 45.776C134.232 45.776 129.66 50.096 129.66 55.64C129.66 61.148 134.232 65.504 139.776 65.504C145.32 65.504 149.892 61.148 149.892 55.64C149.892 50.096 145.32 45.776 139.776 45.776ZM139.776 62.696C135.78 62.696 132.9 59.6 132.9 55.64C132.9 51.644 135.78 48.584 139.776 48.584C143.772 48.584 146.652 51.644 146.652 55.64C146.652 59.6 143.772 62.696 139.776 62.696ZM175.124 59.744C175.124 57.26 173.828 55.424 171.56 54.344C172.604 53.516 173.684 52.256 173.684 50.852C173.684 47.432 170.804 45.776 167.492 45.776C165.44 45.776 163.712 46.46 162.092 47.684L163.64 50.06C164.756 49.232 165.908 48.512 167.384 48.512C169.04 48.512 170.552 49.196 170.552 50.744C170.552 52.976 167.312 53.804 165.512 54.272L166.916 56.612C167.636 56.468 168.14 56.252 168.824 55.928C170.66 56.54 171.956 57.728 171.956 59.744C171.956 61.832 170.012 62.768 167.996 62.768C166.124 62.768 164.36 61.976 163.82 59.78L160.688 60.392C161.48 63.668 164.288 65.504 167.996 65.504C171.884 65.504 175.124 63.488 175.124 59.744ZM203.074 62.264V46.28H191.914L190.582 54.956C190.222 57.26 189.214 61.148 188.134 62.264H185.83V70.112H188.818V65H202.966V70.112H205.954V62.264H203.074ZM200.014 62.264H191.59C192.274 61.364 193.246 57.404 193.606 55.208L194.542 49.016H200.014V62.264ZM229.679 46.28H217.403V49.016H227.123L228.023 53.552C227.051 52.904 225.611 52.58 224.495 52.58C220.211 52.58 216.791 55.388 216.791 59.564C216.791 61.904 218.303 64.1 220.031 65.504L229.823 62.408L230.291 65H233.387L229.679 46.28ZM221.075 62.336C220.427 61.652 219.923 60.464 219.923 59.564C219.923 57.008 221.903 55.316 224.495 55.316C225.935 55.316 227.951 56.072 228.707 57.188L229.247 59.744L221.075 62.336ZM242.825 46.28V49.088H248.549V65H251.681V49.088H257.405V46.28H242.825ZM274.269 53.228H272.109L273.225 46.28H270.129L267.141 65H274.485C278.265 65 281.397 62.984 281.397 59.168C281.397 55.316 277.941 53.228 274.269 53.228ZM274.485 62.264H270.669L271.677 55.964H274.269C276.393 55.964 278.265 57.08 278.265 59.168C278.265 61.328 276.609 62.264 274.485 62.264Z" fill="#1E1E1E"/>
<path d="M114.765 47.18L114.321 47.4099L114.493 47.7427L114.861 47.6707L114.765 47.18ZM118.077 46.532L118.173 47.0227L118.805 46.899L118.528 46.3173L118.077 46.532ZM118.149 58.088L118.602 58.2984L118.871 57.7198L118.245 57.5973L118.149 58.088ZM114.837 57.44L114.933 56.9493L114.56 56.8763L114.39 57.2164L114.837 57.44ZM106.485 62.052C101.04 62.052 97.1929 57.6366 97.1929 52.184H96.1929C96.1929 58.1074 100.41 63.052 106.485 63.052V62.052ZM97.1929 52.184C97.1929 46.7984 101.119 42.748 106.485 42.748V41.748C100.547 41.748 96.1929 46.2656 96.1929 52.184H97.1929ZM106.485 42.748C110.253 42.748 112.82 44.5111 114.321 47.4099L115.209 46.9501C113.541 43.7289 110.637 41.748 106.485 41.748V42.748ZM114.861 47.6707L118.173 47.0227L117.981 46.0413L114.669 46.6893L114.861 47.6707ZM118.528 46.3173C116.36 41.7556 112.047 38.796 106.485 38.796V39.796C111.651 39.796 115.618 42.5244 117.625 46.7467L118.528 46.3173ZM106.485 38.796C98.9513 38.796 92.8089 44.6215 92.8089 52.184H93.8089C93.8089 45.2025 99.4745 39.796 106.485 39.796V38.796ZM92.8089 52.184C92.8089 59.7592 98.8199 66.004 106.485 66.004V65.004C99.3898 65.004 93.8089 59.2248 93.8089 52.184H92.8089ZM106.485 66.004C112.087 66.004 116.436 62.9679 118.602 58.2984L117.695 57.8776C115.686 62.2081 111.683 65.004 106.485 65.004V66.004ZM118.245 57.5973L114.933 56.9493L114.741 57.9307L118.053 58.5787L118.245 57.5973ZM114.39 57.2164C112.886 60.2233 110.282 62.052 106.485 62.052V63.052C110.679 63.052 113.62 60.9927 115.284 57.6636L114.39 57.2164ZM139.776 45.276C133.973 45.276 129.16 49.8035 129.16 55.64H130.16C130.16 50.3885 134.492 46.276 139.776 46.276V45.276ZM129.16 55.64C129.16 61.4393 133.971 66.004 139.776 66.004V65.004C134.493 65.004 130.16 60.8567 130.16 55.64H129.16ZM139.776 66.004C145.581 66.004 150.392 61.4393 150.392 55.64H149.392C149.392 60.8567 145.059 65.004 139.776 65.004V66.004ZM150.392 55.64C150.392 49.8035 145.58 45.276 139.776 45.276V46.276C145.061 46.276 149.392 50.3885 149.392 55.64H150.392ZM139.776 62.196C136.075 62.196 133.4 59.3428 133.4 55.64H132.4C132.4 59.8572 135.485 63.196 139.776 63.196V62.196ZM133.4 55.64C133.4 51.9029 136.073 49.084 139.776 49.084V48.084C135.487 48.084 132.4 51.3851 132.4 55.64H133.4ZM139.776 49.084C143.479 49.084 146.152 51.9029 146.152 55.64H147.152C147.152 51.3851 144.065 48.084 139.776 48.084V49.084ZM146.152 55.64C146.152 59.3428 143.477 62.196 139.776 62.196V63.196C144.067 63.196 147.152 59.8572 147.152 55.64H146.152ZM171.56 54.344L171.249 53.9523L170.621 54.4506L171.345 54.7954L171.56 54.344ZM162.092 47.684L161.79 47.2851L161.418 47.5662L161.673 47.9569L162.092 47.684ZM163.64 50.06L163.221 50.3329L163.511 50.7782L163.938 50.4615L163.64 50.06ZM165.512 54.272L165.386 53.7881L164.739 53.9562L165.083 54.5292L165.512 54.272ZM166.916 56.612L166.487 56.8692L166.668 57.1714L167.014 57.1023L166.916 56.612ZM168.824 55.928L168.982 55.4537L168.791 55.3901L168.61 55.4761L168.824 55.928ZM163.82 59.78L164.305 59.6606L164.191 59.1979L163.724 59.2893L163.82 59.78ZM160.688 60.392L160.592 59.9013L160.079 60.0015L160.202 60.5095L160.688 60.392ZM175.624 59.744C175.624 57.0454 174.196 55.0457 171.775 53.8926L171.345 54.7954C173.459 55.8023 174.624 57.4746 174.624 59.744H175.624ZM171.87 54.7357C172.939 53.8882 174.184 52.4986 174.184 50.852H173.184C173.184 52.0134 172.268 53.1438 171.249 53.9523L171.87 54.7357ZM174.184 50.852C174.184 48.9822 173.387 47.5649 172.128 46.63C170.885 45.7078 169.223 45.276 167.492 45.276V46.276C169.072 46.276 170.506 46.6722 171.532 47.433C172.54 48.1811 173.184 49.3018 173.184 50.852H174.184ZM167.492 45.276C165.314 45.276 163.482 46.0066 161.79 47.2851L162.393 48.0829C163.941 46.9134 165.566 46.276 167.492 46.276V45.276ZM161.673 47.9569L163.221 50.3329L164.059 49.7871L162.511 47.4111L161.673 47.9569ZM163.938 50.4615C165.043 49.6413 166.081 49.012 167.384 49.012V48.012C165.734 48.012 164.468 48.8227 163.342 49.6585L163.938 50.4615ZM167.384 49.012C168.154 49.012 168.844 49.1726 169.324 49.4719C169.783 49.7574 170.052 50.1648 170.052 50.744H171.052C171.052 49.7752 170.565 49.0666 169.853 48.6231C169.163 48.1934 168.27 48.012 167.384 48.012V49.012ZM170.052 50.744C170.052 51.572 169.461 52.2077 168.474 52.727C167.499 53.2399 166.297 53.5511 165.386 53.7881L165.637 54.7559C166.526 54.5249 167.844 54.1881 168.939 53.612C170.022 53.0423 171.052 52.148 171.052 50.744H170.052ZM165.083 54.5292L166.487 56.8692L167.344 56.3548L165.94 54.0148L165.083 54.5292ZM167.014 57.1023C167.795 56.9461 168.343 56.709 169.038 56.3799L168.61 55.4761C167.937 55.795 167.477 55.9899 166.818 56.1217L167.014 57.1023ZM168.666 56.4023C169.529 56.6903 170.226 57.101 170.704 57.6408C171.173 58.1714 171.456 58.8533 171.456 59.744H172.456C172.456 58.6187 172.09 57.6986 171.453 56.9782C170.823 56.267 169.954 55.7777 168.982 55.4537L168.666 56.4023ZM171.456 59.744C171.456 60.6059 171.066 61.2127 170.453 61.6238C169.82 62.0482 168.936 62.268 167.996 62.268V63.268C169.071 63.268 170.167 63.0198 171.01 62.4542C171.873 61.8753 172.456 60.9701 172.456 59.744H171.456ZM167.996 62.268C167.125 62.268 166.317 62.0833 165.677 61.6757C165.047 61.2752 164.546 60.639 164.305 59.6606L163.334 59.8994C163.634 61.117 164.284 61.9748 165.14 62.5193C165.984 63.0567 166.994 63.268 167.996 63.268V62.268ZM163.724 59.2893L160.592 59.9013L160.784 60.8827L163.916 60.2707L163.724 59.2893ZM160.202 60.5095C161.06 64.0612 164.114 66.004 167.996 66.004V65.004C164.461 65.004 161.899 63.2748 161.174 60.2745L160.202 60.5095ZM167.996 66.004C170.019 66.004 171.915 65.4802 173.318 64.428C174.735 63.365 175.624 61.7789 175.624 59.744H174.624C174.624 61.4531 173.892 62.747 172.718 63.628C171.529 64.5198 169.86 65.004 167.996 65.004V66.004ZM203.074 62.264H202.574V62.764H203.074V62.264ZM203.074 46.28H203.574V45.78H203.074V46.28ZM191.914 46.28V45.78H191.485L191.42 46.2041L191.914 46.28ZM190.582 54.956L191.076 55.0332L191.076 55.0319L190.582 54.956ZM188.134 62.264V62.764H188.346L188.493 62.6117L188.134 62.264ZM185.83 62.264V61.764H185.33V62.264H185.83ZM185.83 70.112H185.33V70.612H185.83V70.112ZM188.818 70.112V70.612H189.318V70.112H188.818ZM188.818 65V64.5H188.318V65H188.818ZM202.966 65H203.466V64.5H202.966V65ZM202.966 70.112H202.466V70.612H202.966V70.112ZM205.954 70.112V70.612H206.454V70.112H205.954ZM205.954 62.264H206.454V61.764H205.954V62.264ZM200.014 62.264V62.764H200.514V62.264H200.014ZM191.59 62.264L191.192 61.9615L190.582 62.764H191.59V62.264ZM193.606 55.208L194.099 55.2889L194.1 55.2827L193.606 55.208ZM194.542 49.016V48.516H194.112L194.048 48.9413L194.542 49.016ZM200.014 49.016H200.514V48.516H200.014V49.016ZM203.574 62.264V46.28H202.574V62.264H203.574ZM203.074 45.78H191.914V46.78H203.074V45.78ZM191.42 46.2041L190.088 54.8801L191.076 55.0319L192.408 46.3559L191.42 46.2041ZM190.088 54.8788C189.912 56.0081 189.575 57.5326 189.15 58.908C188.938 59.5956 188.706 60.2371 188.466 60.7693C188.221 61.3118 187.984 61.7004 187.775 61.9163L188.493 62.6117C188.824 62.2696 189.118 61.7537 189.377 61.1813C189.641 60.5986 189.886 59.9149 190.106 59.203C190.545 57.7794 190.892 56.2079 191.076 55.0332L190.088 54.8788ZM188.134 61.764H185.83V62.764H188.134V61.764ZM185.33 62.264V70.112H186.33V62.264H185.33ZM185.83 70.612H188.818V69.612H185.83V70.612ZM189.318 70.112V65H188.318V70.112H189.318ZM188.818 65.5H202.966V64.5H188.818V65.5ZM202.466 65V70.112H203.466V65H202.466ZM202.966 70.612H205.954V69.612H202.966V70.612ZM206.454 70.112V62.264H205.454V70.112H206.454ZM205.954 61.764H203.074V62.764H205.954V61.764ZM200.014 61.764H191.59V62.764H200.014V61.764ZM191.988 62.5665C192.21 62.2748 192.42 61.7932 192.613 61.2611C192.812 60.7113 193.013 60.0489 193.202 59.3529C193.58 57.9611 193.916 56.4053 194.099 55.2889L193.113 55.1271C192.936 56.2067 192.606 57.7289 192.237 59.0911C192.052 59.7721 191.859 60.4057 191.673 60.9202C191.48 61.4523 191.312 61.8032 191.192 61.9615L191.988 62.5665ZM194.1 55.2827L195.036 49.0907L194.048 48.9413L193.112 55.1333L194.1 55.2827ZM194.542 49.516H200.014V48.516H194.542V49.516ZM199.514 49.016V62.264H200.514V49.016H199.514ZM229.679 46.28L230.169 46.1828L230.09 45.78H229.679V46.28ZM217.403 46.28V45.78H216.903V46.28H217.403ZM217.403 49.016H216.903V49.516H217.403V49.016ZM227.123 49.016L227.613 48.9187L227.533 48.516H227.123V49.016ZM228.023 53.552L227.745 53.968L228.748 54.6362L228.513 53.4547L228.023 53.552ZM220.031 65.504L219.716 65.8921L219.925 66.062L220.182 65.9807L220.031 65.504ZM229.823 62.408L230.315 62.3192L230.214 61.76L229.672 61.9313L229.823 62.408ZM230.291 65L229.799 65.0888L229.873 65.5H230.291V65ZM233.387 65V65.5H233.996L233.877 64.9028L233.387 65ZM221.075 62.336L220.712 62.6799L220.927 62.9073L221.226 62.8126L221.075 62.336ZM228.707 57.188L229.196 57.0846L229.176 56.9887L229.121 56.9076L228.707 57.188ZM229.247 59.744L229.398 60.2206L229.83 60.0837L229.736 59.6406L229.247 59.744ZM229.679 45.78H217.403V46.78H229.679V45.78ZM216.903 46.28V49.016H217.903V46.28H216.903ZM217.403 49.516H227.123V48.516H217.403V49.516ZM226.632 49.1133L227.532 53.6493L228.513 53.4547L227.613 48.9187L226.632 49.1133ZM228.3 53.136C227.225 52.4192 225.681 52.08 224.495 52.08V53.08C225.541 53.08 226.877 53.3888 227.745 53.968L228.3 53.136ZM224.495 52.08C219.997 52.08 216.291 55.0538 216.291 59.564H217.291C217.291 55.7222 220.425 53.08 224.495 53.08V52.08ZM216.291 59.564C216.291 62.1113 217.923 64.4358 219.716 65.8921L220.346 65.1159C218.682 63.7642 217.291 61.6967 217.291 59.564H216.291ZM220.182 65.9807L229.974 62.8847L229.672 61.9313L219.88 65.0273L220.182 65.9807ZM229.331 62.4968L229.799 65.0888L230.783 64.9112L230.315 62.3192L229.331 62.4968ZM230.291 65.5H233.387V64.5H230.291V65.5ZM233.877 64.9028L230.169 46.1828L229.188 46.3771L232.896 65.0972L233.877 64.9028ZM221.438 61.9921C221.164 61.703 220.906 61.2898 220.717 60.8381C220.528 60.3849 220.423 59.9296 220.423 59.564H219.423C219.423 60.0984 219.57 60.6871 219.795 61.2239C220.02 61.7622 220.338 62.285 220.712 62.6799L221.438 61.9921ZM220.423 59.564C220.423 57.3291 222.132 55.816 224.495 55.816V54.816C221.674 54.816 219.423 56.6869 219.423 59.564H220.423ZM224.495 55.816C225.138 55.816 225.936 55.9873 226.663 56.2942C227.399 56.6047 227.992 57.0239 228.293 57.4684L229.121 56.9076C228.666 56.2361 227.873 55.7193 227.052 55.3728C226.222 55.0227 225.292 54.816 224.495 54.816V55.816ZM228.218 57.2914L228.758 59.8474L229.736 59.6406L229.196 57.0846L228.218 57.2914ZM229.096 59.2674L220.924 61.8594L221.226 62.8126L229.398 60.2206L229.096 59.2674ZM242.825 46.28V45.78H242.325V46.28H242.825ZM242.825 49.088H242.325V49.588H242.825V49.088ZM248.549 49.088H249.049V48.588H248.549V49.088ZM248.549 65H248.049V65.5H248.549V65ZM251.681 65V65.5H252.181V65H251.681ZM251.681 49.088V48.588H251.181V49.088H251.681ZM257.405 49.088V49.588H257.905V49.088H257.405ZM257.405 46.28H257.905V45.78H257.405V46.28ZM242.325 46.28V49.088H243.325V46.28H242.325ZM242.825 49.588H248.549V48.588H242.825V49.588ZM248.049 49.088V65H249.049V49.088H248.049ZM248.549 65.5H251.681V64.5H248.549V65.5ZM252.181 65V49.088H251.181V65H252.181ZM251.681 49.588H257.405V48.588H251.681V49.588ZM257.905 49.088V46.28H256.905V49.088H257.905ZM257.405 45.78H242.825V46.78H257.405V45.78ZM272.109 53.228L271.615 53.1487L271.522 53.728H272.109V53.228ZM273.225 46.28L273.718 46.3593L273.812 45.78H273.225V46.28ZM270.129 46.28V45.78H269.702L269.635 46.2012L270.129 46.28ZM267.141 65L266.647 64.9212L266.555 65.5H267.141V65ZM270.669 62.264L270.175 62.185L270.082 62.764H270.669V62.264ZM271.677 55.964V55.464H271.25L271.183 55.885L271.677 55.964ZM274.269 52.728H272.109V53.728H274.269V52.728ZM272.602 53.3073L273.718 46.3593L272.731 46.2007L271.615 53.1487L272.602 53.3073ZM273.225 45.78H270.129V46.78H273.225V45.78ZM269.635 46.2012L266.647 64.9212L267.635 65.0788L270.623 46.3588L269.635 46.2012ZM267.141 65.5H274.485V64.5H267.141V65.5ZM274.485 65.5C276.457 65.5 278.302 64.9746 279.666 63.909C281.044 62.8326 281.897 61.2289 281.897 59.168H280.897C280.897 60.9231 280.184 62.2354 279.05 63.121C277.903 64.0174 276.292 64.5 274.485 64.5V65.5ZM281.897 59.168C281.897 57.0736 280.95 55.4457 279.512 54.3551C278.087 53.274 276.193 52.728 274.269 52.728V53.728C276.017 53.728 277.687 54.226 278.908 55.1519C280.116 56.0683 280.897 57.4104 280.897 59.168H281.897ZM274.485 61.764H270.669V62.764H274.485V61.764ZM271.163 62.343L272.171 56.043L271.183 55.885L270.175 62.185L271.163 62.343ZM271.677 56.464H274.269V55.464H271.677V56.464ZM274.269 56.464C275.25 56.464 276.138 56.7229 276.767 57.1857C277.381 57.638 277.765 58.2937 277.765 59.168H278.765C278.765 57.9543 278.212 57.008 277.36 56.3803C276.521 55.7631 275.411 55.464 274.269 55.464V56.464ZM277.765 59.168C277.765 60.1031 277.415 60.7225 276.873 61.1244C276.31 61.5425 275.483 61.764 274.485 61.764V62.764C275.61 62.764 276.674 62.5175 277.469 61.9276C278.286 61.3215 278.765 60.3929 278.765 59.168H277.765Z" fill="#1E1E1E"/>
</svg>
